<?xml version="1.0" standalone="no"?><!DOCTYPE svg PUBLIC "-//W3C//DTD SVG 1.1//EN" "http://www.w3.org/Graphics/SVG/1.1/DTD/svg11.dtd"><svg class="icon" width="25px" height="25.00px" viewBox="0 0 1024 1024" version="1.1" xmlns="http://www.w3.org/2000/svg"><path fill="#707070" d="M203.029066 995.386312c-11.391445 0-22.315238-2.226714-32.472576-6.618744-14.700817-5.740748-24.343431-15.887852-28.66076-30.163997-3.39533-11.225669-3.100618-23.098068-2.788509-35.667338 0.086981-3.491521 0.176009-7.100722 0.176009-10.641361L139.28323 132.386146c0-33.975812 20.856004-63.97301 53.154617-76.499301 10.335393-4.373611 21.237697-6.591115 32.406061-6.591115l612.202143 0c4.281513 0 11.980869 0 17.596773 6.77224 32.036647 12.632715 52.693106 42.506093 52.693106 76.3192l0 779.908726c0 33.93488-20.799722 63.898309-53.030797 76.452229-0.021489 0.010233-0.044002 0.019443-0.064468 0.028653-5.53097 5.993504-12.225439 5.992481-17.195637 5.992481-22.857591 0-43.787272-8.064676-60.527538-23.321148l-0.660032-0.600681-0.584308-0.673335L520.037047 676.624385 264.215614 970.847429l-0.659009 0.600681C246.617817 986.883661 225.122247 995.386312 203.029066 995.386312zM224.843908 79.993892c-6.995321 0-14.121626 1.464351-20.609387 4.235464l-0.524956 0.212848c-20.488637 7.869225-33.727149 26.688849-33.727149 47.943942l0 779.908726c0 3.921309-0.094144 7.724938-0.185218 11.403724-0.62524 25.198915 0.480954 32.079626 12.097526 36.540218l0.648776 0.267083c6.343475 2.775206 13.236466 4.182252 20.485567 4.182252 14.368242 0 27.909653-5.308913 39.220257-15.363919L520.037047 629.837802l277.785677 319.482335c10.595312 9.393951 23.706935 14.473643 38.038338 14.737656 1.629103-1.172709 3.694135-2.368954 6.399757-3.553942l0.649799-0.267083c20.487613-7.868201 33.727149-26.687826 33.727149-47.943942L876.637768 132.386146c0-21.255093-13.239536-40.074717-33.727149-47.943942l-0.525979-0.212848c-3.173273-1.354857-5.51869-2.793626-7.318686-4.235464L224.843908 79.993892z" /></svg>